<?xml version="1.0" encoding="UTF-8" standalone="no"?>
<!DOCTYPE svg PUBLIC "-//W3C//DTD SVG 1.1//EN" "http://www.w3.org/Graphics/SVG/1.1/DTD/svg11.dtd">
<svg width="100%" height="100%" viewBox="0 0 178 178" version="1.1" xmlns="http://www.w3.org/2000/svg" xmlns:xlink="http://www.w3.org/1999/xlink" xml:space="preserve" xmlns:serif="http://www.serif.com/" style="fill-rule:evenodd;clip-rule:evenodd;stroke-linejoin:round;stroke-miterlimit:2;">
    <g transform="matrix(0.846774,0,0,0.885246,7.29235,6.25481)">
        <path d="M96,20.481C136.77,20.481 170.043,52.887 170.043,93C170.043,133.113 136.77,165.519 96,165.519C55.23,165.519 21.957,133.113 21.957,93C21.957,52.887 55.23,20.481 96,20.481ZM96,43.519C68.333,43.519 46.043,65.779 46.043,93C46.043,120.221 68.333,142.481 96,142.481C123.667,142.481 145.957,120.221 145.957,93C145.957,65.779 123.667,43.519 96,43.519Z"/>
        <g transform="matrix(0.170623,0,0,0.400285,56.3581,52.9494)">
            <path d="M96,20.481C136.77,20.481 170.043,52.887 170.043,93C170.043,133.113 136.77,165.519 96,165.519C55.23,165.519 21.957,133.113 21.957,93C21.957,52.887 55.23,20.481 96,20.481ZM96,43.519C68.333,43.519 46.043,65.779 46.043,93C46.043,120.221 68.333,142.481 96,142.481C123.667,142.481 145.957,120.221 145.957,93C145.957,65.779 123.667,43.519 96,43.519Z"/>
        </g>
        <g transform="matrix(0.170623,0,0,0.400285,103.596,52.9494)">
            <path d="M96,20.481C136.77,20.481 170.043,52.887 170.043,93C170.043,133.113 136.77,165.519 96,165.519C55.23,165.519 21.957,133.113 21.957,93C21.957,52.887 55.23,20.481 96,20.481ZM96,43.519C68.333,43.519 46.043,65.779 46.043,93C46.043,120.221 68.333,142.481 96,142.481C123.667,142.481 145.957,120.221 145.957,93C145.957,65.779 123.667,43.519 96,43.519Z"/>
        </g>
    </g>
</svg>
