<?xml version="1.0" encoding="UTF-8" standalone="no"?>
<!DOCTYPE svg PUBLIC "-//W3C//DTD SVG 1.1//EN" "http://www.w3.org/Graphics/SVG/1.1/DTD/svg11.dtd">
<svg width="100%" height="100%" viewBox="0 0 178 178" version="1.1" xmlns="http://www.w3.org/2000/svg" xmlns:xlink="http://www.w3.org/1999/xlink" xml:space="preserve" xmlns:serif="http://www.serif.com/" style="fill-rule:evenodd;clip-rule:evenodd;stroke-linejoin:round;stroke-miterlimit:2;">
    <g transform="matrix(0.846774,0,0,0.885246,7.29235,6.25481)">
        <path d="M96,20.481C136.77,20.481 170.043,52.887 170.043,93C170.043,133.113 136.77,165.519 96,165.519C55.23,165.519 21.957,133.113 21.957,93C21.957,52.887 55.23,20.481 96,20.481ZM96,43.519C68.333,43.519 46.043,65.779 46.043,93C46.043,120.221 68.333,142.481 96,142.481C123.667,142.481 145.957,120.221 145.957,93C145.957,65.779 123.667,43.519 96,43.519ZM119.976,61.148C126.932,61.148 132.609,74.119 132.609,90.176C132.609,106.233 126.932,119.204 119.976,119.204C113.02,119.204 107.342,106.233 107.342,90.176C107.342,74.119 113.02,61.148 119.976,61.148ZM119.976,70.369C115.255,70.369 111.452,79.28 111.452,90.176C111.452,101.072 115.255,109.982 119.976,109.982C124.696,109.982 128.5,101.072 128.5,90.176C128.5,79.28 124.696,70.369 119.976,70.369ZM72.738,61.148C79.694,61.148 85.371,74.119 85.371,90.176C85.371,106.233 79.694,119.204 72.738,119.204C65.782,119.204 60.104,106.233 60.104,90.176C60.104,74.119 65.782,61.148 72.738,61.148ZM72.738,70.369C68.017,70.369 64.214,79.28 64.214,90.176C64.214,101.072 68.017,109.982 72.738,109.982C77.459,109.982 81.262,101.072 81.262,90.176C81.262,79.28 77.459,70.369 72.738,70.369Z"/>
    </g>
</svg>
