<?xml version="1.0" encoding="UTF-8" standalone="no"?>
<!DOCTYPE svg PUBLIC "-//W3C//DTD SVG 1.1//EN" "http://www.w3.org/Graphics/SVG/1.1/DTD/svg11.dtd">
<svg width="100%" height="100%" viewBox="0 0 178 178" version="1.1" xmlns="http://www.w3.org/2000/svg" xmlns:xlink="http://www.w3.org/1999/xlink" xml:space="preserve" xmlns:serif="http://www.serif.com/" style="fill-rule:evenodd;clip-rule:evenodd;stroke-linejoin:round;stroke-miterlimit:2;">
    <g transform="matrix(0.0458179,0,0,-0.0458179,-91.5153,206.57)">
        <path d="M2806,4267C2795,4224 2800,4014 2815,3930C2835,3818 2834,3764 2810,3650C2786,3536 2785,3438 2805,3380C2813,3356 2819,3335 2817,3333C2815,3331 2771,3326 2719,3320C2612,3310 2536,3296 2500,3281C2478,3271 2480,3271 2515,3275C2759,3306 2831,3307 2847,3281C2862,3257 2856,3252 2780,3221C2700,3188 2584,3124 2512,3073C2436,3019 2435,3004 2511,3056C2592,3110 2845,3230 2879,3230C2883,3230 2892,3218 2899,3203C2910,3180 2907,3171 2877,3121C2791,2981 2754,2884 2740,2762C2727,2647 2743,2492 2786,2317C2836,2115 2838,2082 2807,1974C2773,1857 2756,1733 2763,1651C2770,1568 2834,1385 2889,1293C2944,1200 2949,1169 2918,1128C2826,1007 2829,932 2927,883C2973,861 2995,857 3068,857C3116,856 3190,864 3232,873C3335,896 3407,894 3491,869C3544,853 3580,849 3644,851C3718,855 3733,859 3784,891L3842,926L3898,907C3929,897 3987,886 4025,883C4115,876 4184,895 4270,951C4352,1004 4451,1044 4560,1066C4703,1094 4963,1073 5035,1026C5048,1017 5071,987 5085,960C5117,896 5162,846 5200,830C5248,810 5332,822 5374,854C5427,894 5444,934 5444,1011C5444,1080 5423,1151 5386,1206C5374,1223 5348,1263 5328,1294C5285,1358 5224,1401 5135,1429C5042,1458 4891,1474 4773,1466C4677,1461 4669,1461 4674,1478C4711,1599 4714,1835 4681,2015C4645,2211 4581,2379 4490,2516C4431,2607 4311,2740 4229,2806C4100,2912 3956,3037 3910,3085C3885,3111 3846,3148 3823,3167C3799,3187 3780,3209 3780,3217C3780,3260 3955,3185 4050,3102C4078,3078 4100,3062 4100,3065C4100,3085 3985,3174 3908,3215L3820,3261L3836,3286C3845,3299 3857,3310 3863,3310C3904,3310 4091,3247 4179,3204C4237,3176 4274,3160 4262,3170C4214,3209 4110,3260 4005,3295C3945,3315 3892,3335 3888,3339C3884,3342 3883,3355 3886,3367C3893,3391 3949,3405 4105,3420C4188,3428 4183,3429 4052,3425C3922,3422 3909,3423 3915,3438C3930,3478 3940,3560 3940,3649C3940,3702 3947,3786 3956,3835C3964,3885 3974,3995 3977,4080C3984,4274 3982,4279 3887,4231C3853,4214 3789,4173 3745,4140C3701,4108 3639,4063 3607,4041L3549,4001L3387,4006C3162,4013 3172,4011 3092,4086C3011,4163 2924,4229 2859,4265L2812,4290L2806,4267ZM2975,4088C3020,4041 3057,3991 3078,3949L3110,3882L3158,3898C3195,3911 3247,3914 3405,3915L3605,3915L3674,3983C3743,4051 3834,4120 3857,4120C3877,4120 3881,4067 3871,3964C3856,3817 3834,3762 3803,3792C3789,3807 3788,3815 3799,3851C3815,3904 3806,3913 3784,3866C3767,3831 3767,3830 3793,3782C3830,3714 3854,3616 3847,3558C3835,3462 3821,3434 3763,3394C3712,3359 3696,3336 3738,3359C3766,3374 3793,3373 3788,3358C3784,3346 3752,3338 3657,3325C3631,3322 3612,3315 3615,3310C3618,3306 3637,3306 3657,3310C3709,3321 3746,3316 3742,3299C3735,3271 3633,3188 3558,3151C3423,3082 3305,3077 3167,3131C3140,3142 3115,3149 3113,3147C3105,3138 3175,3102 3240,3080C3295,3061 3320,3059 3405,3063C3520,3069 3589,3090 3676,3145L3734,3182L3787,3124C3876,3026 3919,2966 3944,2904C3968,2846 3990,2701 3990,2605C3990,2580 3994,2560 3998,2560C4007,2560 4030,2731 4030,2793C4030,2813 4034,2830 4038,2830C4061,2830 4196,2722 4273,2643C4404,2510 4467,2412 4535,2241C4605,2064 4641,1798 4620,1610C4614,1552 4606,1475 4603,1439L4598,1373L4651,1381C4681,1385 4764,1389 4836,1389C5045,1390 5154,1355 5263,1251C5371,1150 5411,1018 5355,952C5326,917 5282,897 5245,902C5213,905 5204,919 5195,974C5186,1028 5095,1120 5025,1144C4919,1180 4679,1171 4477,1123C4440,1114 4407,1110 4403,1113C4400,1117 4407,1131 4420,1145C4468,1196 4431,1177 4349,1110C4218,1000 4081,941 4063,986C4060,994 4064,1019 4073,1041C4081,1062 4084,1080 4080,1080C4069,1080 4026,1023 4017,997C4010,978 3972,960 3953,967C3933,975 3931,998 3947,1045C3955,1070 3960,1094 3956,1097C3944,1109 3901,1080 3884,1049C3869,1019 3866,1018 3855,1034C3821,1079 3801,1344 3819,1485C3832,1578 3850,1622 3850,1559C3850,1480 3890,1378 3939,1330C3960,1310 4016,1270 4024,1270C4028,1270 4018,1289 4004,1312C3968,1368 3931,1453 3914,1515C3894,1589 3897,1669 3926,1815C3942,1900 3951,1979 3951,2043C3951,2136 3938,2210 3921,2210C3916,2210 3910,2173 3907,2128C3901,2039 3875,1928 3833,1815C3743,1568 3725,1471 3732,1266C3736,1156 3741,1123 3764,1057C3779,1014 3789,972 3786,964C3778,944 3746,947 3725,970C3705,992 3690,988 3690,959C3690,943 3683,940 3645,940C3614,940 3598,945 3594,955C3590,963 3582,970 3575,970C3568,970 3557,963 3550,955C3534,935 3517,936 3490,958L3467,976L3488,1023C3525,1107 3534,1176 3534,1390C3533,1672 3506,1926 3473,1967C3461,1983 3459,1944 3464,1662C3469,1334 3461,1194 3434,1085C3409,982 3347,949 3320,1023C3314,1041 3304,1106 3299,1168C3293,1231 3278,1323 3265,1373L3242,1465L3239,1350C3237,1287 3237,1179 3239,1110C3241,1013 3239,982 3229,973C3209,957 3080,919 3069,926C3064,929 3063,942 3066,956C3074,988 3057,987 3018,955C2991,932 2985,931 2966,943C2935,964 2934,1011 2963,1046C3015,1109 3022,1134 3022,1274C3023,1350 3014,1474 3002,1570C2990,1661 2976,1787 2970,1850C2953,2022 2934,2124 2895,2238C2816,2474 2814,2611 2885,2925C2911,3040 2977,3196 3005,3206C3026,3214 3024,3225 2995,3256C2981,3271 2973,3287 2978,3292C2982,3296 3011,3302 3042,3304C3102,3308 3170,3327 3170,3339C3170,3343 3151,3353 3128,3360C3039,3386 2941,3448 2908,3497C2876,3546 2884,3623 2930,3719C2952,3764 2970,3811 2970,3823C2970,3835 2959,3863 2946,3885L2922,3924L2927,3877C2934,3818 2918,3815 2894,3873C2881,3903 2875,3950 2872,4038C2868,4151 2869,4160 2886,4160C2896,4160 2936,4127 2975,4088ZM3037,3374C3083,3360 3120,3344 3120,3339C3120,3328 2980,3327 2963,3338C2949,3347 2934,3400 2946,3400C2950,3400 2991,3388 3037,3374ZM2870,1866C2870,1864 2881,1791 2894,1703C2908,1616 2921,1516 2925,1480C2928,1444 2934,1402 2937,1385C2945,1337 2925,1367 2892,1452C2845,1568 2839,1603 2838,1720C2838,1831 2844,1870 2861,1870C2866,1870 2870,1868 2870,1866Z" style="fill-rule:nonzero;"/>
    </g>
</svg>
