<?xml version="1.0" encoding="UTF-8" standalone="no"?>
<!DOCTYPE svg PUBLIC "-//W3C//DTD SVG 1.1//EN" "http://www.w3.org/Graphics/SVG/1.1/DTD/svg11.dtd">
<svg width="100%" height="100%" viewBox="0 0 451 58" version="1.1" xmlns="http://www.w3.org/2000/svg"
	xmlns:xlink="http://www.w3.org/1999/xlink" xml:space="preserve" xmlns:serif="http://www.serif.com/"
	style="fill-rule:evenodd;clip-rule:evenodd;stroke-linejoin:round;stroke-miterlimit:2;">
	<path
		d="M220.91,16.566c-0.733,0.738 -1.183,1.932 -1.391,3.686c-0.299,2.522 -0.076,4.725 0.613,6.068c0.344,0.67 1.22,1.543 1.813,1.806c1.656,0.735 3.217,-0.541 3.898,-3.185c0.452,-1.756 0.453,-2.564 0.008,-4.868c-0.368,-1.904 -0.401,-2.009 -0.837,-2.603c-0.252,-0.343 -0.705,-0.788 -1.016,-0.997c-1.179,-0.794 -2.239,-0.762 -3.088,0.093Z"
		style="fill:rgb(0,0,0);fill-rule:nonzero;" />
	<path
		d="M115.132,0.104c-2.476,-0.246 -4.435,0.236 -5.421,1.332c-0.69,0.768 -0.866,1.203 -0.931,2.312c-0.055,0.923 -0.029,1.069 0.313,1.798c1.37,2.921 7.814,6.892 13.945,8.594c0.677,0.188 1.331,0.379 1.46,0.428c0.15,0.056 -0.35,0.21 -1.401,0.43c-4.36,0.914 -8.735,2.12 -13.78,3.799c-5.994,1.995 -10.359,3.762 -19.129,7.744l-4.66,2.116l-0.555,-0.45c-0.304,-0.246 -1.279,-1.063 -2.155,-1.805c-4.052,-3.432 -7.266,-5.429 -10.055,-6.247c-2.464,-0.723 -5.524,-0.227 -6.626,1.074c-0.493,0.581 -0.673,1.098 -0.673,1.927c-0,0.969 0.349,1.869 1.073,2.768c2.073,2.572 6.086,4.687 10.57,5.572l1.647,0.325l-2.067,0.962c-7.346,3.42 -15.619,6.569 -20.904,7.957c-5.197,1.365 -12.729,2.483 -19.211,2.85c-1.448,0.082 -1.485,0.078 -1.569,-0.184c-0.152,-0.475 -2.38,-4.286 -3.401,-5.816c-1.387,-2.079 -2.359,-3.295 -3.556,-4.449c-3.457,-3.332 -6.705,-4.06 -8.033,-1.799c-0.272,0.463 -0.329,0.712 -0.326,1.436c0.006,1.704 0.914,3.597 2.913,6.073c1.009,1.25 2.818,3.05 3.764,3.746c0.432,0.318 0.812,0.607 0.848,0.645c0.114,0.122 -1.525,-0.106 -3.008,-0.418c-2.849,-0.601 -6.055,-1.868 -8.093,-3.2l-0.736,-0.481l-0.907,-2.044c-1.436,-3.235 -2.264,-4.509 -4.3,-6.622c-1.328,-1.378 -2.855,-2.575 -3.995,-3.131c-2.067,-1.009 -4.292,-0.984 -5.454,0.06c-0.583,0.524 -0.784,1.097 -0.701,1.996c0.167,1.813 1.717,3.941 4.812,6.604c2.899,2.494 5.582,3.893 8.537,4.45c1.285,0.242 1.478,0.318 2.557,0.996c3.56,2.238 7.509,3.45 13.126,4.027c0.642,0.066 1.649,0.12 2.236,0.12c0.584,-0 1.069,0.042 1.069,0.094c-0,0.052 -0.701,0.341 -1.565,0.645c-1.939,0.684 -4.358,1.883 -6.038,2.993c-1.495,0.987 -3.442,2.875 -3.957,3.836c-1.165,2.173 0.103,3.643 3.676,4.264c2.08,0.361 3.714,0.182 6.26,-0.686c3.679,-1.255 6.099,-2.766 9.109,-5.686c5.769,-5.598 5.702,-5.546 8.21,-6.372c0.911,-0.3 2.321,-0.664 3.13,-0.808c5.597,-0.993 10.814,-2.614 18.825,-5.847c2.871,-1.159 5.407,-2.284 10.218,-4.533c9.109,-4.258 17.13,-7.9 19.76,-8.97c0.923,-0.375 1.137,-0.431 0.864,-0.224c-2.768,2.104 -4.649,4.168 -6.212,6.813c-1.055,1.787 -1.677,3.362 -2.003,5.068c-0.552,2.896 0.185,4.388 2.165,4.382c2.548,-0.008 6.64,-2.373 9.197,-5.316c1.955,-2.25 3.473,-5.022 5.614,-10.254c1.639,-4.006 2.011,-4.758 2.426,-4.916c0.187,-0.071 1.355,-0.43 2.604,-0.801c7.764,-2.305 14.761,-3.621 23.427,-4.407c2.885,-0.262 10.502,-0.368 13.185,-0.184c9.366,0.641 17.219,2.934 24.559,7.168c3.457,1.994 4.22,2.615 7.213,5.874c0.869,0.946 1.08,1.06 1.522,0.821c0.367,-0.197 0.751,-1.055 0.661,-1.475c-0.104,-0.487 -1.07,-1.401 -3.3,-3.122c-7.666,-5.915 -15.474,-9.201 -25.447,-10.711c-3.347,-0.507 -5.956,-0.673 -10.615,-0.678c-4.453,-0.004 -6.166,0.084 -10.697,0.554l-2.488,0.258l-0.455,-0.345c-0.894,-0.677 -2.193,-2.096 -3.696,-4.034c-2.4,-3.095 -5.018,-5.563 -7.34,-6.919c-1.719,-1.002 -4.108,-1.786 -6.035,-1.977Zm-3.036,1.663c0.805,-0.24 3.153,-0.233 4.298,0.013c3.725,0.8 6.748,3.009 11.263,8.229c1.02,1.18 2.236,2.439 2.751,2.849c0.502,0.4 0.837,0.736 0.736,0.736c-0.33,-0 -2.733,-0.843 -3.994,-1.401c-0.666,-0.295 -2.476,-1.196 -4.006,-1.995c-3.737,-1.951 -6.274,-3.163 -6.383,-3.051c-0.375,0.384 6.442,4.668 9.84,6.185c1.074,0.479 1.834,0.9 1.285,0.711c-0.103,-0.035 -1.028,-0.289 -2.055,-0.564c-4.157,-1.111 -6.925,-2.24 -10.067,-4.104c-3.445,-2.045 -5.41,-4.018 -5.414,-5.44c-0.004,-1.075 0.602,-1.827 1.746,-2.168Zm-42.883,19.441c0.958,-0.141 0.958,-0.141 1.904,-0.001c2.184,0.324 5.489,2.18 9.308,5.228c0.911,0.727 2.116,1.666 2.674,2.083c0.561,0.419 0.959,0.794 0.888,0.838c-0.172,0.105 -2.721,-0.567 -4.601,-1.213c-2.009,-0.691 -3.447,-1.292 -5.022,-2.101c-0.677,-0.348 -1.352,-0.67 -1.507,-0.72c-0.542,-0.176 -0.269,0.156 0.677,0.821c2.115,1.485 4.59,2.649 7.147,3.363c0.841,0.235 1.611,0.453 1.711,0.485c0.112,0.036 -0.029,0.152 -0.368,0.304c-0.491,0.219 -0.724,0.239 -2.207,0.188c-4.461,-0.154 -9.254,-2.056 -11.862,-4.708c-1.16,-1.18 -1.57,-2.516 -1.066,-3.48c0.251,-0.481 1.192,-0.92 2.324,-1.087Zm38.924,1.432c1.623,-1.383 1.6,-1.364 1.6,-1.281c-0,0.199 -2.226,5.197 -3.178,7.135c-1.549,3.153 -2.712,4.848 -4.576,6.667c-2.184,2.132 -5.271,3.828 -7.042,3.869c-0.824,0.019 -0.899,-0.084 -0.899,-1.229c-0,-2.18 1.293,-5.244 3.387,-8.023c1.017,-1.35 3.106,-3.422 4.519,-4.483c0.864,-0.648 4.477,-3.13 4.963,-3.409c0.103,-0.059 -0.423,0.523 -1.168,1.294c-2.925,3.025 -4.53,5.437 -5.453,8.198c-0.617,1.845 -0.441,2.174 0.318,0.596c0.574,-1.193 2.154,-3.609 3.247,-4.963c1.072,-1.329 2.893,-3.187 4.282,-4.371Zm-106.401,5.248c1.07,-0.436 2.394,-0.293 3.83,0.415c1.208,0.595 2.272,1.465 3.591,2.936c1.702,1.898 2.647,3.282 3.765,5.512l0.574,1.145l-0.572,-0.391c-0.316,-0.216 -1.063,-0.8 -1.67,-1.305c-1.215,-1.011 -2.41,-1.877 -2.593,-1.877c-0.155,-0 -0.027,0.631 0.244,1.203c0.302,0.636 1.624,1.998 3.014,3.106c0.666,0.53 1.13,0.957 1.039,0.956c-0.537,-0.009 -3.819,-1.785 -5.605,-3.035c-2.009,-1.405 -4.522,-3.824 -5.434,-5.23c-0.553,-0.853 -0.954,-1.81 -0.954,-2.277c0.001,-0.434 0.375,-0.996 0.771,-1.158Zm19.737,3.678c1.396,-1.174 5.032,1.004 7.718,4.625c1.378,1.857 4.603,6.912 4.485,7.03c-0.082,0.082 -1.647,-0.722 -2.476,-1.271c-1.107,-0.734 -2.207,-1.655 -4.064,-3.405c-0.818,-0.77 -1.527,-1.408 -1.565,-1.408c-0.217,-0 -0.005,0.467 0.678,1.495c0.901,1.355 2.955,3.464 4.262,4.375l0.911,0.635l-0.724,-0c-0.688,-0 -0.782,-0.039 -1.903,-0.794c-1.409,-0.948 -2.563,-1.963 -3.918,-3.446c-3.309,-3.62 -4.676,-6.767 -3.404,-7.836Zm21.803,14.093c0.374,-0.121 0.758,-0.248 0.858,-0.284c0.099,-0.035 -0.117,0.176 -0.479,0.467c-0.362,0.292 -1.571,1.397 -2.68,2.451c-4.484,4.262 -5.946,5.277 -9.716,6.745c-2.277,0.887 -3.489,1.168 -5.022,1.168c-2.09,-0 -4.128,-0.588 -4.535,-1.308c-0.155,-0.274 -0.144,-0.362 0.119,-0.911c0.396,-0.827 2.01,-2.406 3.423,-3.348c3.243,-2.162 9.436,-4.444 13.827,-5.095c0.689,-0.102 1.407,-0.187 1.582,-0.187c0.204,-0 -0.613,0.465 -2.236,1.273c-2.569,1.279 -5.816,3.28 -5.816,3.585c-0,0.093 0.028,0.163 0.064,0.163c0.035,-0 0.8,-0.368 1.688,-0.813c1.846,-0.922 7.903,-3.575 8.923,-3.906Z"
		style="fill:rgb(0,0,0);fill-rule:nonzero;" />
	<path
		d="M213.414,19.004c0.625,0.379 1.615,1.556 1.839,2.187c0.318,0.899 0.383,2.558 0.13,3.317c-0.62,1.857 -2.602,1.967 -3.988,0.222c-1.364,-1.717 -1.089,-4.957 0.489,-5.773c0.467,-0.242 1.084,-0.223 1.53,0.047Z"
		style="fill:rgb(0,0,0);fill-rule:nonzero;" />
	<path
		d="M205.696,21.233c1.133,0.623 1.762,2.368 1.228,3.404c-0.657,1.274 -2.47,1.145 -3.435,-0.245c-0.975,-1.404 -0.151,-3.311 1.425,-3.298c0.292,0.002 0.649,0.066 0.782,0.139Z"
		style="fill:rgb(0,0,0);fill-rule:nonzero;" />
	<path
		d="M335.507,0.063c-1.927,0.191 -4.316,0.975 -6.038,1.98c-2.321,1.356 -4.94,3.824 -7.34,6.919c-1.503,1.939 -2.803,3.357 -3.696,4.034l-0.455,0.345l-2.487,-0.258c-4.531,-0.47 -6.245,-0.559 -10.697,-0.554c-4.66,0.005 -7.268,0.171 -10.615,0.678c-9.973,1.51 -17.781,4.796 -25.447,10.711c-2.231,1.721 -3.196,2.634 -3.3,3.122c-0.09,0.421 0.294,1.278 0.661,1.475c0.443,0.238 0.653,0.125 1.522,-0.821c2.993,-3.258 3.756,-3.879 7.213,-5.874c7.34,-4.234 15.193,-6.527 24.559,-7.168c2.682,-0.184 10.3,-0.077 13.185,0.184c8.665,0.786 15.662,2.102 23.427,4.407c1.25,0.371 2.418,0.73 2.604,0.801c0.415,0.158 0.787,0.911 2.426,4.916c2.141,5.232 3.659,8.004 5.614,10.254c2.558,2.943 6.65,5.308 9.197,5.316c1.98,0.006 2.717,-1.486 2.165,-4.382c-0.325,-1.706 -0.947,-3.282 -2.003,-5.068c-1.562,-2.646 -3.444,-4.71 -6.212,-6.814c-0.272,-0.207 -0.058,-0.152 0.864,0.224c2.629,1.07 10.65,4.711 19.76,8.97c4.811,2.249 7.348,3.374 10.219,4.533c8.011,3.233 13.228,4.854 18.825,5.847c0.808,0.143 2.219,0.507 3.13,0.808c2.508,0.826 2.441,0.774 8.21,6.372c3.01,2.92 5.43,4.431 9.109,5.686c2.546,0.869 4.18,1.048 6.26,0.686c3.573,-0.621 4.841,-2.091 3.676,-4.264c-0.515,-0.961 -2.462,-2.848 -3.957,-3.836c-1.68,-1.109 -4.099,-2.309 -6.038,-2.993c-0.864,-0.305 -1.565,-0.594 -1.565,-0.646c-0,-0.051 0.485,-0.093 1.069,-0.093c0.588,-0 1.594,-0.054 2.236,-0.12c5.617,-0.577 9.567,-1.789 13.126,-4.027c1.079,-0.679 1.273,-0.754 2.557,-0.996c2.955,-0.557 5.638,-1.956 8.537,-4.45c3.095,-2.663 4.646,-4.791 4.812,-6.604c0.083,-0.899 -0.119,-1.472 -0.701,-1.996c-1.161,-1.044 -3.387,-1.069 -5.454,-0.06c-1.14,0.556 -2.667,1.753 -3.995,3.131c-2.036,2.113 -2.864,3.387 -4.3,6.622l-0.908,2.044l-0.736,0.481c-2.038,1.332 -5.243,2.599 -8.093,3.2c-1.483,0.313 -3.122,0.541 -3.008,0.418c0.036,-0.039 0.416,-0.328 0.848,-0.646c0.946,-0.696 2.755,-2.496 3.764,-3.746c1.999,-2.476 2.907,-4.368 2.913,-6.073c0.003,-0.724 -0.054,-0.973 -0.326,-1.436c-1.327,-2.26 -4.576,-1.533 -8.033,1.799c-1.196,1.153 -2.169,2.37 -3.556,4.448c-1.021,1.53 -3.249,5.341 -3.401,5.816c-0.084,0.262 -0.121,0.267 -1.569,0.184c-6.481,-0.368 -14.014,-1.485 -19.211,-2.85c-5.285,-1.388 -13.558,-4.537 -20.904,-7.957l-2.067,-0.962l1.647,-0.325c4.484,-0.885 8.497,-3.001 10.57,-5.573c0.724,-0.898 1.073,-1.798 1.073,-2.768c-0,-0.829 -0.18,-1.346 -0.673,-1.927c-1.102,-1.301 -4.162,-1.797 -6.626,-1.074c-2.789,0.818 -6.003,2.815 -10.055,6.247c-0.876,0.742 -1.851,1.559 -2.155,1.805l-0.555,0.45l-4.66,-2.116c-8.77,-3.982 -13.135,-5.749 -19.129,-7.744c-5.045,-1.679 -9.421,-2.885 -13.78,-3.799c-1.051,-0.22 -1.552,-0.374 -1.401,-0.43c0.129,-0.048 0.782,-0.24 1.46,-0.428c6.131,-1.701 12.575,-5.673 13.945,-8.594c0.342,-0.729 0.368,-0.876 0.313,-1.798c-0.066,-1.109 -0.241,-1.544 -0.931,-2.312c-0.984,-1.095 -2.943,-1.577 -5.419,-1.331Zm3.037,1.663c1.145,0.341 1.75,1.093 1.747,2.169c-0.004,1.421 -1.969,3.395 -5.414,5.44c-3.141,1.865 -5.909,2.993 -10.067,4.104c-1.028,0.275 -1.953,0.528 -2.055,0.564c-0.549,0.189 0.21,-0.232 1.285,-0.711c3.398,-1.516 10.215,-5.801 9.84,-6.185c-0.11,-0.113 -2.646,1.1 -6.383,3.051c-1.53,0.799 -3.34,1.7 -4.006,1.995c-1.261,0.558 -3.663,1.401 -3.994,1.401c-0.102,-0 0.234,-0.335 0.736,-0.736c0.515,-0.411 1.731,-1.67 2.751,-2.849c4.515,-5.22 7.538,-7.429 11.263,-8.229c1.144,-0.248 3.491,-0.254 4.297,-0.014Zm42.882,19.441c1.133,0.167 2.074,0.606 2.324,1.086c0.503,0.964 0.094,2.301 -1.067,3.48c-2.608,2.652 -7.401,4.554 -11.862,4.707c-1.483,0.051 -1.716,0.031 -2.207,-0.188c-0.339,-0.151 -0.48,-0.268 -0.368,-0.304c0.099,-0.032 0.87,-0.251 1.711,-0.485c2.557,-0.713 5.032,-1.878 7.147,-3.363c0.946,-0.664 1.22,-0.996 0.677,-0.821c-0.155,0.05 -0.829,0.373 -1.507,0.72c-1.575,0.809 -3.013,1.411 -5.022,2.101c-1.88,0.646 -4.429,1.319 -4.601,1.213c-0.071,-0.044 0.327,-0.419 0.888,-0.838c0.558,-0.417 1.763,-1.356 2.674,-2.083c3.819,-3.048 7.123,-4.904 9.308,-5.228c0.948,-0.138 0.948,-0.138 1.905,0.003Zm-38.923,1.432c1.39,1.184 3.21,3.042 4.283,4.371c1.093,1.355 2.673,3.77 3.247,4.963c0.759,1.579 0.935,1.25 0.318,-0.596c-0.923,-2.761 -2.528,-5.173 -5.453,-8.198c-0.745,-0.771 -1.271,-1.353 -1.168,-1.294c0.486,0.279 4.099,2.761 4.963,3.409c1.413,1.06 3.502,3.133 4.519,4.483c2.094,2.779 3.387,5.843 3.387,8.023c-0,1.144 -0.076,1.248 -0.899,1.229c-1.771,-0.041 -4.858,-1.737 -7.042,-3.869c-1.864,-1.82 -3.027,-3.514 -4.576,-6.667c-0.952,-1.939 -3.178,-6.936 -3.178,-7.135c-0.001,-0.083 -0.025,-0.101 1.599,1.281Zm106.4,5.249c0.396,0.161 0.771,0.723 0.771,1.155c-0,0.467 -0.401,1.425 -0.954,2.277c-0.912,1.406 -3.425,3.825 -5.434,5.23c-1.787,1.25 -5.068,3.027 -5.606,3.035c-0.091,0.001 0.374,-0.425 1.039,-0.956c1.39,-1.107 2.712,-2.47 3.014,-3.106c0.272,-0.572 0.4,-1.203 0.244,-1.203c-0.182,-0 -1.378,0.866 -2.593,1.877c-0.607,0.506 -1.353,1.089 -1.67,1.305l-0.572,0.391l0.574,-1.145c1.118,-2.23 2.063,-3.614 3.765,-5.512c1.319,-1.471 2.382,-2.341 3.591,-2.936c1.437,-0.705 2.762,-0.849 3.831,-0.412Zm-19.736,3.677c1.272,1.069 -0.095,4.216 -3.404,7.836c-1.356,1.483 -2.509,2.498 -3.918,3.446c-1.121,0.754 -1.215,0.794 -1.903,0.794l-0.724,-0l0.911,-0.635c1.306,-0.911 3.361,-3.02 4.261,-4.375c0.683,-1.028 0.895,-1.495 0.678,-1.495c-0.038,-0 -0.747,0.638 -1.565,1.408c-1.857,1.75 -2.957,2.671 -4.064,3.405c-0.829,0.549 -2.394,1.353 -2.476,1.271c-0.118,-0.118 3.107,-5.173 4.485,-7.03c2.687,-3.621 6.323,-5.799 7.719,-4.625Zm-21.803,14.094c1.02,0.331 7.077,2.983 8.922,3.907c0.888,0.444 1.652,0.813 1.688,0.813c0.037,-0 0.064,-0.07 0.064,-0.164c-0,-0.304 -3.247,-2.306 -5.816,-3.585c-1.623,-0.808 -2.44,-1.273 -2.236,-1.273c0.176,-0 0.893,0.085 1.582,0.187c4.391,0.651 10.584,2.933 13.827,5.095c1.413,0.942 3.027,2.521 3.423,3.348c0.263,0.549 0.274,0.636 0.119,0.911c-0.407,0.72 -2.444,1.308 -4.535,1.308c-1.533,-0 -2.744,-0.282 -5.022,-1.168c-3.77,-1.468 -5.232,-2.482 -9.716,-6.744c-1.109,-1.055 -2.318,-2.16 -2.68,-2.452c-0.362,-0.292 -0.578,-0.502 -0.479,-0.467c0.1,0.035 0.485,0.162 0.859,0.284Z"
		style="fill:rgb(0,0,0);fill-rule:nonzero;" />
	<path
		d="M234.962,18.952c-0.625,0.379 -1.615,1.556 -1.839,2.187c-0.319,0.899 -0.384,2.558 -0.13,3.317c0.62,1.857 2.602,1.967 3.988,0.222c1.364,-1.717 1.089,-4.956 -0.489,-5.773c-0.467,-0.242 -1.083,-0.223 -1.53,0.047Z"
		style="fill:rgb(0,0,0);fill-rule:nonzero;" />
	<path
		d="M244.943,21.192c-1.133,0.623 -1.762,2.368 -1.228,3.404c0.657,1.274 2.47,1.145 3.435,-0.245c0.975,-1.404 0.151,-3.311 -1.425,-3.298c-0.291,0.002 -0.648,0.066 -0.782,0.139Z"
		style="fill:rgb(0,0,0);fill-rule:nonzero;" />
</svg>