<?xml version="1.0" encoding="UTF-8" standalone="no"?>
<!DOCTYPE svg PUBLIC "-//W3C//DTD SVG 1.1//EN" "http://www.w3.org/Graphics/SVG/1.1/DTD/svg11.dtd">
<svg width="100%" height="100%" viewBox="0 0 510 347" version="1.1" xmlns="http://www.w3.org/2000/svg" xmlns:xlink="http://www.w3.org/1999/xlink" xml:space="preserve" xmlns:serif="http://www.serif.com/" style="fill-rule:evenodd;clip-rule:evenodd;stroke-linejoin:round;stroke-miterlimit:2;">
    <g>
        <path d="M176.252,2.298L176.852,-0.002L181.552,2.498C188.052,6.098 196.752,12.698 204.852,20.398C212.852,27.898 211.852,27.698 234.352,28.398L250.552,28.898L256.352,24.898C259.552,22.698 265.752,18.198 270.152,14.998C274.552,11.698 280.952,7.598 284.352,5.898C293.852,1.098 294.052,1.598 293.352,20.998C293.052,29.498 292.052,40.498 291.252,45.498C290.352,50.398 289.652,58.798 289.652,64.098C289.652,72.998 288.652,81.198 287.152,85.198C286.552,86.698 287.852,86.798 300.852,86.498C313.952,86.098 314.452,86.198 306.152,86.998C290.552,88.498 284.952,89.898 284.252,92.298C283.952,93.498 284.052,94.798 284.452,95.098C284.852,95.498 290.152,97.498 296.152,99.498C306.652,102.998 317.052,108.098 321.852,111.998C323.052,112.998 319.352,111.398 313.552,108.598C304.752,104.298 286.052,97.998 281.952,97.998C281.352,97.998 280.152,99.098 279.252,100.398L277.652,102.898L286.452,107.498C294.152,111.598 305.652,120.498 305.652,122.498C305.652,122.798 303.452,121.198 300.652,118.798C291.152,110.498 273.652,102.998 273.652,107.298C273.652,108.098 275.552,110.298 277.952,112.298C280.252,114.198 284.152,117.898 286.652,120.498C291.252,125.298 305.652,137.798 318.552,148.398C326.752,154.998 338.752,168.298 344.652,177.398C353.752,191.098 360.152,207.898 363.752,227.498C367.052,245.498 366.752,269.098 363.052,281.198C362.552,282.898 363.352,282.898 372.952,282.398C384.752,281.598 399.852,283.198 409.152,286.098C418.052,288.898 424.152,293.198 428.452,299.598C430.452,302.698 433.052,306.698 434.252,308.398C437.952,313.898 440.052,320.998 440.052,327.898C440.052,335.598 438.352,339.598 433.052,343.598C428.852,346.798 420.452,347.998 415.652,345.998C411.852,344.398 407.352,339.398 404.152,332.998C402.752,330.298 400.452,327.298 399.152,326.398C391.952,321.698 365.952,319.598 351.652,322.398C340.752,324.598 330.852,328.598 322.652,333.898C314.052,339.498 307.152,341.398 298.152,340.698C294.352,340.398 288.552,339.298 285.452,338.298L279.852,336.398L274.052,339.898C268.952,343.098 267.452,343.498 260.052,343.898C253.652,344.098 250.052,343.698 244.752,342.098C236.352,339.598 229.152,339.398 218.852,341.698C214.652,342.598 207.252,343.398 202.452,343.298C195.152,343.298 192.952,342.898 188.352,340.698C178.552,335.798 178.252,328.298 187.452,316.198C190.552,312.098 190.052,308.998 184.552,299.698C179.052,290.498 172.652,272.198 171.952,263.898C171.252,255.698 172.952,243.298 176.352,231.598C179.452,220.798 179.252,217.498 174.252,197.298C169.952,179.798 168.352,164.298 169.652,152.798C171.052,140.598 174.752,130.898 183.352,116.898C186.352,111.898 186.652,110.998 185.552,108.698C184.852,107.198 183.952,105.998 183.552,105.998C180.152,105.998 154.852,117.998 146.752,123.398C139.152,128.598 139.252,127.098 146.852,121.698C154.052,116.598 165.652,110.198 173.652,106.898C181.252,103.798 181.852,103.298 180.352,100.898C178.752,98.298 171.552,98.398 147.152,101.498C143.652,101.898 143.452,101.898 145.652,100.898C149.252,99.398 156.852,97.998 167.552,96.998C172.752,96.398 177.152,95.898 177.352,95.698C177.552,95.498 176.952,93.398 176.152,90.998C174.152,85.198 174.252,75.398 176.652,63.998C179.052,52.598 179.152,47.198 177.152,35.998C175.652,27.598 175.152,6.598 176.252,2.298ZM199.352,91.598C194.752,90.198 190.652,88.998 190.252,88.998C189.052,88.998 190.552,94.298 191.952,95.198C193.652,96.298 207.652,96.198 207.652,95.098C207.652,94.598 203.952,92.998 199.352,91.598ZM182.652,242.398C182.652,242.198 182.252,241.998 181.752,241.998C180.052,241.998 179.452,245.898 179.452,256.998C179.552,268.698 180.152,272.198 184.852,283.798C188.152,292.298 190.152,295.298 189.352,290.498C189.052,288.798 188.452,284.598 188.152,280.998C187.752,277.398 186.452,267.398 185.052,258.698C183.752,249.898 182.652,242.598 182.652,242.398ZM193.152,20.198C189.252,16.298 185.252,12.998 184.252,12.998C182.552,12.998 182.452,13.898 182.852,25.198C183.152,33.998 183.752,38.698 185.052,41.698C187.452,47.498 189.052,47.198 188.352,41.298L187.852,36.598L190.252,40.498C191.552,42.698 192.652,45.498 192.652,46.698C192.652,47.898 190.852,52.598 188.652,57.098C184.052,66.698 183.252,74.398 186.452,79.298C189.752,84.198 199.552,90.398 208.452,92.998C210.752,93.698 212.652,94.698 212.652,95.098C212.652,96.298 205.852,98.198 199.852,98.598C196.752,98.798 193.852,99.398 193.452,99.798C192.952,100.298 193.752,101.898 195.152,103.398C198.052,106.498 198.252,107.598 196.152,108.398C193.352,109.398 186.752,124.998 184.152,136.498C177.052,167.898 177.252,181.598 185.152,205.198C189.052,216.598 190.952,226.798 192.652,243.998C193.252,250.298 194.652,262.898 195.852,271.998C197.052,281.598 197.952,293.998 197.852,301.598C197.852,315.598 197.152,318.098 191.952,324.398C189.052,327.898 189.152,332.598 192.252,334.698C194.152,335.898 194.752,335.798 197.452,333.498C201.352,330.298 203.052,330.198 202.252,333.398C201.952,334.798 202.052,336.098 202.552,336.398C203.652,337.098 216.552,333.298 218.552,331.698C219.552,330.798 219.752,327.698 219.552,317.998C219.352,311.098 219.352,300.298 219.552,293.998L219.852,282.498L222.152,291.698C223.452,296.698 224.952,305.898 225.552,312.198C226.052,318.398 227.052,324.898 227.652,326.698C230.352,334.098 236.552,330.798 239.052,320.498C241.752,309.598 242.552,295.598 242.052,262.798C241.552,234.598 241.752,230.698 242.952,232.298C246.252,236.398 248.952,261.798 249.052,289.998C249.052,311.398 248.152,318.298 244.452,326.698L242.352,331.398L244.652,333.198C247.352,335.398 249.052,335.498 250.652,333.498C251.352,332.698 252.452,331.998 253.152,331.998C253.852,331.998 254.652,332.698 255.052,333.498C255.452,334.498 257.052,334.998 260.152,334.998C263.952,334.998 264.652,334.698 264.652,333.098C264.652,330.198 266.152,329.798 268.152,331.998C270.252,334.298 273.452,334.598 274.252,332.598C274.552,331.798 273.552,327.598 272.052,323.298C269.752,316.698 269.252,313.398 268.852,302.398C268.152,281.898 269.952,272.198 278.952,247.498C283.152,236.198 285.752,225.098 286.352,216.198C286.652,211.698 287.252,207.998 287.752,207.998C289.452,207.998 290.752,215.398 290.752,224.698C290.752,231.098 289.852,238.998 288.252,247.498C285.352,262.098 285.052,270.098 287.052,277.498C288.752,283.698 292.452,292.198 296.052,297.798C297.452,300.098 298.452,301.998 298.052,301.998C297.252,301.998 291.652,297.998 289.552,295.998C284.652,291.198 280.652,280.998 280.652,273.098C280.652,266.798 278.852,271.198 277.552,280.498C275.752,294.598 277.752,321.098 281.152,325.598C282.252,327.198 282.552,327.098 284.052,324.098C285.752,320.998 290.052,318.098 291.252,319.298C291.652,319.598 291.152,321.998 290.352,324.498C288.752,329.198 288.952,331.498 290.952,332.298C292.852,332.998 296.652,331.198 297.352,329.298C298.252,326.698 302.552,320.998 303.652,320.998C304.052,320.998 303.752,322.798 302.952,324.898C302.052,327.098 301.652,329.598 301.952,330.398C303.752,334.898 317.452,328.998 330.552,317.998C338.752,311.298 342.452,309.398 337.652,314.498C336.352,315.898 335.652,317.298 335.952,317.698C336.352,317.998 339.652,317.598 343.352,316.698C363.552,311.898 387.552,310.998 398.152,314.598C405.152,316.998 414.252,326.198 415.152,331.598C416.052,337.098 416.952,338.498 420.152,338.798C423.852,339.298 428.252,337.298 431.152,333.798C436.752,327.198 432.752,313.998 421.952,303.898C411.052,293.498 400.152,289.998 379.252,290.098C372.052,290.098 363.752,290.498 360.752,290.898L355.452,291.698L355.952,285.098C356.252,281.498 357.052,273.798 357.652,267.998C359.752,249.198 356.152,222.598 349.152,204.898C342.352,187.798 336.052,177.998 322.952,164.698C315.252,156.798 301.752,145.998 299.452,145.998C299.052,145.998 298.652,147.698 298.652,149.698C298.652,155.898 296.352,172.998 295.452,172.998C295.052,172.998 294.652,170.998 294.652,168.498C294.652,158.898 292.452,144.398 290.052,138.598C287.552,132.398 283.252,126.398 274.352,116.598L269.052,110.798L263.252,114.498C254.552,119.998 247.652,122.098 236.152,122.698C227.652,123.098 225.152,122.898 219.652,120.998C213.152,118.798 206.152,115.198 206.952,114.298C207.152,114.098 209.652,114.798 212.352,115.898C226.152,121.298 237.952,120.798 251.452,113.898C258.952,110.198 269.152,101.898 269.852,99.098C270.252,97.398 266.552,96.898 261.352,97.998C259.352,98.398 257.452,98.398 257.152,97.998C256.852,97.498 258.752,96.798 261.352,96.498C270.852,95.198 274.052,94.398 274.452,93.198C274.952,91.698 272.252,91.598 269.452,93.098C265.252,95.398 266.852,93.098 271.952,89.598C277.752,85.598 279.152,82.798 280.352,73.198C281.052,67.398 278.652,57.598 274.952,50.798C272.352,45.998 272.352,45.898 274.052,42.398C276.252,37.698 277.152,38.598 275.552,43.898C274.452,47.498 274.552,48.298 275.952,49.798C279.052,52.798 281.252,47.298 282.752,32.598C283.752,22.298 283.352,16.998 281.352,16.998C279.052,16.998 269.952,23.898 263.052,30.698L256.152,37.498L236.152,37.498C220.352,37.598 215.152,37.898 211.452,39.198L206.652,40.798L203.452,34.098C201.352,29.898 197.652,24.898 193.152,20.198ZM252.652,63.798C253.452,63.398 255.152,63.098 256.352,63.098C259.252,62.998 265.652,65.998 265.652,67.498C265.652,69.298 256.152,78.098 254.052,78.198C253.052,78.298 250.052,77.998 247.452,77.598C243.052,76.898 242.652,76.998 242.652,78.898C242.652,80.098 242.252,80.998 241.652,80.998C240.352,80.998 240.352,77.098 241.752,73.198C242.652,70.498 248.052,65.898 252.652,63.798ZM257.052,67.598C255.952,64.798 253.952,65.898 253.352,69.698C252.652,73.998 253.052,74.998 255.752,74.998C257.152,74.998 257.652,74.298 257.652,72.098C257.652,70.498 257.352,68.498 257.052,67.598ZM223.652,94.298C223.652,92.398 238.952,92.498 240.552,94.398C241.552,95.598 240.952,96.298 237.252,98.498C234.752,99.998 232.652,101.498 232.652,101.898C232.652,102.298 233.952,103.898 235.552,105.398C238.052,107.798 239.352,108.198 243.352,108.198C247.752,108.098 247.952,108.198 246.252,109.598C243.852,111.298 239.152,111.298 235.152,109.598C232.452,108.498 231.752,108.598 228.452,110.798C224.352,113.498 220.652,113.398 216.152,110.398C212.452,107.998 213.052,107.198 218.652,107.798C227.552,108.598 231.652,103.198 226.152,97.998C224.752,96.698 223.652,95.098 223.652,94.298ZM202.752,63.298C207.452,61.598 213.352,62.298 216.352,65.198C219.552,68.098 221.952,73.598 221.152,76.098C220.552,77.998 220.352,77.998 218.652,76.498C217.152,75.098 216.252,74.998 212.652,75.998C207.752,77.298 205.452,76.198 201.152,70.598C197.952,66.298 198.252,64.998 202.752,63.298ZM211.452,67.598C210.952,64.598 208.752,64.498 207.652,67.498C206.252,71.098 206.352,72.498 208.152,73.998C209.352,74.998 209.752,74.698 210.652,72.398C211.252,70.898 211.652,68.698 211.452,67.598ZM310.952,236.998C317.252,233.998 323.852,233.198 328.152,234.898C329.752,235.598 329.052,235.898 325.152,236.498C318.752,237.398 311.852,240.398 308.352,243.798C305.252,246.798 301.652,257.098 301.652,263.098C301.652,265.998 301.352,266.798 300.252,266.398C295.552,264.598 296.352,253.098 301.752,244.598C304.052,240.898 306.052,239.298 310.952,236.998ZM211.352,221.198C210.852,218.998 211.052,217.998 211.952,217.998C213.552,217.998 230.152,250.898 232.152,257.798C234.852,267.798 235.952,287.598 234.752,303.798C233.452,319.998 232.852,323.298 231.552,322.398C231.052,322.098 230.652,313.098 230.652,302.298C230.652,279.798 228.952,268.698 223.052,253.498C215.552,234.298 211.952,224.398 211.352,221.198ZM6.652,130.698C6.652,129.498 8.352,129.898 22.252,134.698C31.052,137.598 36.652,143.798 40.652,154.798C42.252,158.998 44.852,166.098 46.552,170.398C48.252,174.798 49.452,178.598 49.252,178.798C49.052,178.998 47.452,176.598 45.652,173.498C41.752,166.698 37.952,161.998 36.152,161.998C35.452,161.998 34.252,162.698 33.552,163.598C32.552,164.798 30.952,165.098 26.952,164.798C22.352,164.398 20.952,163.698 15.752,159.198C12.452,156.298 9.452,153.998 9.152,153.998C8.752,153.998 7.052,152.798 5.252,151.298L2.152,148.698L5.952,149.398C10.952,150.298 10.652,148.798 5.152,144.998C2.652,143.298 0.652,141.498 0.652,140.898C0.652,139.798 5.352,140.498 7.052,141.898C9.252,143.698 9.452,142.098 8.052,136.698C7.252,133.798 6.652,131.198 6.652,130.698ZM16.552,144.698C11.352,138.098 10.352,137.698 11.252,142.598C12.752,151.198 18.452,157.198 27.552,159.998C31.052,161.098 33.952,161.898 34.052,161.798C34.152,161.598 35.152,160.098 36.452,158.298C37.652,156.498 38.652,154.398 38.652,153.498C38.652,150.398 35.752,146.498 30.852,142.698C25.052,138.298 22.152,137.698 25.752,141.698C28.652,144.998 32.652,150.698 32.652,151.498C32.652,151.898 30.952,150.798 28.952,149.098C24.252,145.198 23.552,145.198 24.352,149.098C24.952,152.098 24.852,152.198 22.752,151.098C21.652,150.398 18.752,147.598 16.552,144.698ZM66.452,130.598C67.252,129.098 69.552,134.498 72.352,144.698C74.452,152.398 75.052,156.698 74.952,164.498C74.952,177.998 72.952,184.598 67.152,190.698C64.652,193.298 62.352,195.098 62.052,194.698C60.652,193.298 58.652,182.098 58.652,175.298C58.652,167.298 57.252,164.998 55.752,170.498C54.552,175.098 55.552,181.598 60.052,196.898C64.752,212.798 68.252,221.098 74.052,229.898C79.252,237.698 81.252,238.898 80.252,233.698C78.452,224.898 78.452,214.298 80.152,208.398C82.152,201.198 87.252,191.698 92.752,184.698C97.452,178.898 99.252,175.198 101.652,166.498C103.252,160.898 103.452,160.698 104.552,162.898C106.052,165.598 106.052,164.098 104.852,198.498C104.252,217.498 103.552,226.398 102.652,228.498C100.452,233.298 93.552,241.998 92.452,241.398C90.752,240.298 92.152,230.198 95.152,221.798C98.552,211.798 97.752,209.598 93.852,217.998C90.152,225.798 89.552,223.198 92.652,212.498C93.752,208.698 94.652,204.898 94.652,204.298C94.652,201.298 92.752,203.398 90.052,209.198C87.352,215.198 87.152,216.198 87.152,228.998C87.152,242.398 87.152,242.498 90.552,248.698C96.652,259.998 103.552,267.198 116.152,275.398C130.052,284.498 131.452,285.298 132.652,284.498C134.052,283.598 132.452,280.998 127.152,274.998C120.752,267.698 118.252,262.598 119.052,257.798C120.552,248.498 127.552,239.498 140.952,229.598C145.152,226.498 149.352,222.798 150.252,221.498C154.252,215.298 154.452,220.798 150.552,235.898C149.552,239.998 148.652,246.198 148.652,249.598C148.652,259.998 147.052,265.198 142.652,269.498C138.052,273.898 137.652,276.798 140.652,281.698C145.152,289.198 174.752,308.998 181.352,308.998C183.152,308.998 184.652,309.398 184.652,309.998C184.652,312.998 173.752,309.898 155.352,301.898C150.352,299.698 146.452,298.698 140.352,298.298C128.652,297.498 124.752,298.798 119.452,305.198C109.052,317.798 107.252,318.698 89.152,319.998C81.952,320.598 75.452,321.698 70.252,323.398C65.952,324.798 61.852,325.998 61.252,325.998C60.752,325.998 62.252,323.898 64.752,321.198C67.252,318.598 72.552,312.698 76.352,307.998C85.252,297.198 88.252,294.498 92.952,292.498C99.652,289.698 120.252,290.698 137.852,294.598C149.252,297.198 150.152,295.998 140.152,291.598C135.152,289.498 125.352,284.898 118.152,281.398C104.552,274.698 95.052,271.998 85.252,271.998C80.452,271.998 79.452,272.398 73.552,276.998C65.752,283.098 59.352,285.598 49.552,286.498L42.152,287.198L45.652,284.098C52.852,277.698 65.752,271.698 67.952,273.898C68.352,274.298 67.552,274.998 65.852,275.298C62.952,275.898 56.152,280.898 58.152,280.998C60.252,280.998 69.652,277.098 72.652,274.998C75.352,273.098 75.652,272.498 74.452,271.398C73.752,270.598 71.052,269.698 68.552,269.398C62.352,268.598 55.552,272.098 46.152,280.998C40.552,286.298 37.752,288.198 33.652,289.398C30.652,290.298 28.152,290.998 27.952,290.998C24.952,290.998 48.452,269.498 54.652,266.598C58.752,264.698 60.952,264.498 77.452,264.498L95.852,264.498L87.352,256.298C82.752,251.898 76.952,247.198 74.552,245.998C69.952,243.598 66.752,243.598 50.652,245.898C38.652,247.698 33.952,245.498 18.652,231.198L10.252,223.298L18.852,223.798C25.052,224.098 29.552,223.698 34.652,222.498C42.952,220.498 51.552,220.898 56.752,223.498C60.752,225.498 68.652,233.498 68.652,235.498C68.652,236.898 78.252,245.998 79.752,245.998C81.452,245.998 80.552,243.998 75.352,236.298C72.352,231.998 66.752,222.598 62.752,215.298C58.752,208.098 54.952,201.698 54.252,201.098C53.352,200.298 51.252,200.298 47.052,201.098C40.752,202.298 34.952,201.698 30.752,199.598C29.352,198.798 24.852,195.198 20.852,191.698C16.352,187.698 11.752,184.498 8.852,183.498C-0.348,180.198 -0.748,179.998 0.552,178.698C1.352,177.898 6.652,177.498 17.952,177.498C36.952,177.498 40.052,178.398 48.952,186.898C51.952,189.698 54.652,191.998 55.052,191.998C55.352,191.998 54.952,190.598 54.052,188.798C52.952,186.698 52.452,182.998 52.352,177.098C52.252,167.998 53.552,163.798 61.552,147.098C63.252,143.498 64.852,138.598 65.252,136.098C65.652,133.598 66.152,131.098 66.452,130.598ZM66.252,160.998C67.952,151.598 67.852,144.598 66.052,151.498C65.452,153.698 64.452,157.498 63.752,159.998C60.452,172.298 59.552,185.998 62.052,185.998C63.652,185.998 64.652,181.698 64.652,174.498C64.652,171.598 65.352,165.498 66.252,160.998ZM84.952,211.298C86.952,204.898 88.452,199.498 88.252,199.198C86.752,197.698 81.752,209.998 80.052,219.198C78.752,226.698 81.252,222.698 84.952,211.298ZM40.652,185.598C32.252,181.598 26.652,180.098 26.652,181.898C26.652,182.498 27.152,182.998 27.652,182.998C29.452,182.998 48.952,192.398 47.852,192.798C47.352,192.898 42.552,191.698 37.152,189.998C31.852,188.198 27.252,187.098 26.952,187.398C26.052,188.298 36.652,192.798 42.252,194.098C50.652,195.898 53.652,196.298 53.652,195.398C53.552,193.398 47.552,188.898 40.652,185.598ZM68.552,177.198C68.652,175.498 68.252,173.998 67.652,173.998C66.452,173.998 66.452,175.698 67.652,178.498C68.352,180.198 68.552,179.998 68.552,177.198ZM118.452,296.498C118.152,296.198 114.352,295.698 110.052,295.398C101.852,294.898 95.452,296.498 89.352,300.498C86.352,302.398 85.652,304.598 88.452,303.498C91.152,302.298 105.952,297.998 107.052,297.998C107.652,297.998 104.152,300.198 99.152,302.898C81.252,312.598 79.652,313.498 79.652,314.298C79.652,315.398 82.952,314.398 90.652,310.798C94.252,309.098 98.752,307.098 100.652,306.298L104.152,304.898L100.652,308.198C98.752,309.998 96.052,312.298 94.652,313.298L92.152,315.098L95.152,314.498C96.852,314.198 100.452,312.298 103.152,310.398C109.452,306.098 119.252,297.198 118.452,296.498ZM139.952,237.198C140.552,236.398 140.552,235.998 139.852,235.998C137.752,235.998 129.452,245.598 127.152,250.498C123.652,257.998 123.552,258.898 124.752,263.398C125.752,266.998 126.052,267.198 126.752,265.498C127.252,264.398 129.052,261.198 130.652,258.498C132.352,255.698 135.052,250.798 136.752,247.498L139.752,241.498L134.152,247.498C131.152,250.698 128.652,252.998 128.652,252.598C128.652,252.198 130.952,248.798 133.852,245.098C136.652,241.498 139.452,237.898 139.952,237.198ZM64.052,232.098C60.852,230.698 32.452,230.598 34.652,231.998C35.452,232.498 37.752,232.998 39.652,232.998C41.552,232.998 45.652,233.298 48.652,233.698L54.152,234.398L49.152,235.698C46.452,236.398 42.952,236.998 41.452,236.998C39.952,236.998 38.452,237.398 38.152,237.998C37.252,239.498 44.552,239.198 50.452,237.498C53.352,236.598 55.652,235.498 55.652,234.998C55.652,233.498 65.052,233.798 66.552,235.198C67.552,236.298 67.652,236.198 67.152,234.898C66.852,233.998 65.452,232.798 64.052,232.098ZM136.152,256.698C137.252,254.098 134.952,254.598 133.052,257.498C130.252,261.698 128.552,271.998 130.652,271.998C131.252,271.998 131.652,271.398 131.652,270.698C131.652,269.398 134.452,260.598 136.152,256.698ZM422.252,166.698C421.852,162.098 421.952,161.998 423.752,163.598C426.252,165.798 427.652,171.198 427.652,178.298C427.652,187.698 431.852,193.998 438.152,193.998C439.852,193.998 441.052,194.798 441.852,196.498C442.952,198.998 444.252,199.498 446.252,198.198C447.552,197.398 450.652,185.698 450.652,181.898C450.652,180.598 451.552,178.898 452.652,178.298C454.452,177.098 454.552,177.298 453.952,182.098C453.352,186.998 453.452,187.198 455.452,186.498C458.752,185.498 458.052,187.698 454.552,189.498C451.652,190.998 451.552,191.298 453.052,192.898C453.952,193.898 454.652,195.298 454.652,195.998C454.652,197.998 451.652,200.898 450.152,200.398C447.452,199.298 447.752,202.198 451.752,214.698C455.652,226.998 455.852,227.998 455.752,239.998C455.652,246.898 454.952,255.198 454.252,258.498L452.852,264.498L452.752,253.698C452.552,237.198 450.552,234.498 438.652,234.498C431.452,234.498 430.652,234.298 425.452,230.798C422.452,228.798 418.252,224.998 416.152,222.298C414.052,219.698 409.252,215.398 405.452,212.698C401.752,210.098 398.652,207.498 398.652,206.898C398.652,206.398 399.152,206.198 399.852,206.598C400.452,206.998 406.452,207.398 413.052,207.498C422.752,207.698 426.552,208.198 431.952,209.998C439.252,212.498 446.552,218.098 449.452,223.398C450.952,226.198 451.152,226.298 451.452,224.298C451.852,221.398 448.252,209.598 445.352,204.498C444.152,202.298 442.052,199.998 440.752,199.498C431.952,195.898 430.052,194.398 427.152,188.898C425.552,185.798 423.552,182.498 422.752,181.598C420.952,179.398 419.052,179.498 420.752,181.698C421.452,182.698 420.352,181.898 418.252,179.998C414.852,176.798 414.652,176.498 416.652,176.198C417.852,175.998 419.852,176.498 421.152,177.398C423.452,178.898 423.452,178.898 423.052,175.198C422.852,173.198 422.552,169.298 422.252,166.698ZM427.852,213.398C421.652,211.198 417.652,210.398 417.652,211.398C417.652,211.598 421.252,213.198 425.752,214.898C433.652,217.898 440.752,221.898 436.152,220.698C428.852,218.698 418.452,216.898 417.952,217.398C416.952,218.298 425.852,221.898 433.752,223.698C439.652,224.998 441.852,226.098 445.352,229.298C450.152,233.698 451.552,233.598 449.652,228.998C447.952,224.798 436.052,216.298 427.852,213.398ZM436.952,169.998C436.052,166.798 438.252,167.698 441.652,171.998C443.352,174.198 445.152,175.998 445.552,175.998C445.852,175.998 446.752,174.598 447.352,172.998C448.952,168.798 450.752,168.998 449.552,173.198C449.052,174.998 448.252,177.398 447.752,178.498C447.252,179.598 446.252,183.198 445.652,186.498C444.952,189.798 444.152,191.798 443.952,190.998C442.752,186.698 438.352,176.998 437.552,176.998C437.052,176.998 436.652,179.198 436.652,181.998C436.652,187.698 435.452,188.398 433.052,183.898C430.052,177.998 428.752,172.198 430.052,170.398C431.152,168.898 431.552,168.898 434.352,170.398C437.352,171.898 437.452,171.898 436.952,169.998ZM473.852,191.898C477.852,185.898 481.252,180.998 481.452,180.998C481.552,180.998 481.452,181.998 481.252,183.198C480.952,184.498 479.552,191.598 478.152,198.998C475.252,213.998 471.352,223.698 465.152,230.698C461.852,234.598 458.452,236.698 460.252,233.898C460.652,233.198 461.052,229.098 461.152,224.598C461.552,213.598 464.752,205.398 473.852,191.898ZM467.152,218.598C470.052,210.598 470.152,206.298 467.252,211.898C465.352,215.398 462.652,223.698 462.652,225.798C462.652,228.698 464.552,225.598 467.152,218.598ZM503.852,236.998C507.152,234.198 507.952,234.598 507.252,238.398C504.052,255.298 495.652,264.098 479.752,266.998C472.552,268.298 467.252,270.498 459.652,275.298C456.652,277.298 454.052,278.698 453.952,278.598C453.752,278.498 456.052,275.898 458.952,272.898C461.752,269.898 465.952,264.298 468.152,260.498C475.352,247.898 484.652,240.898 495.852,239.598C499.152,239.198 502.552,237.998 503.852,236.998ZM491.052,250.098C493.952,248.998 490.852,248.198 487.152,248.998C479.752,250.798 473.852,254.898 471.252,260.098C469.852,262.898 469.852,263.098 471.252,262.598C472.052,262.298 475.252,261.298 478.252,260.398C486.452,258.098 493.552,254.698 491.352,254.198C489.552,253.798 477.252,257.498 474.652,259.298C473.852,259.798 474.552,258.898 476.252,257.298C477.952,255.598 481.552,253.498 484.252,252.498C486.952,251.598 490.052,250.498 491.052,250.098ZM400.452,240.698C404.352,240.198 417.452,240.998 422.152,242.198C432.752,244.798 443.352,252.898 446.252,260.698C448.052,265.398 447.652,271.198 445.052,276.198C443.252,279.698 441.652,279.398 440.352,275.398C438.952,271.098 438.052,270.298 430.552,266.398C425.752,263.898 422.052,260.798 418.152,256.498C414.152,251.898 410.652,249.198 405.152,246.298C401.052,244.198 397.652,242.198 397.652,241.798C397.652,241.398 398.852,240.998 400.452,240.698ZM427.852,250.698C424.052,249.198 419.652,248.398 420.752,249.398C421.652,250.198 436.052,255.898 436.352,255.598C436.952,255.098 432.552,252.498 427.852,250.698ZM429.352,258.098C420.652,254.598 418.852,254.298 420.552,256.298C421.652,257.698 435.252,264.298 439.452,265.498C440.752,265.898 441.652,265.698 441.652,265.098C441.652,263.498 438.052,261.498 429.352,258.098ZM41.252,255.798C41.752,254.998 46.652,254.598 46.652,255.398C46.652,255.598 45.352,255.998 43.752,256.198C42.052,256.398 40.952,256.298 41.252,255.798ZM56.152,255.998C60.352,254.898 62.652,254.898 60.152,255.998C52.252,259.398 40.952,263.998 40.352,263.998C39.952,263.998 39.652,263.398 39.652,262.598C39.652,260.198 45.152,256.998 49.352,256.898C51.452,256.798 54.552,256.398 56.152,255.998ZM451.052,269.998C452.352,265.598 452.852,269.798 451.652,275.198C450.452,281.198 446.952,287.598 441.952,293.098C437.552,297.998 439.152,298.198 448.452,294.098C461.652,288.298 477.652,287.398 486.352,291.898C493.152,295.298 503.952,306.698 508.052,314.698C508.952,316.498 509.652,318.098 509.652,318.398C509.652,318.598 506.652,317.798 502.952,316.498C499.152,315.198 491.252,313.398 485.152,312.498C469.452,310.298 461.652,308.298 457.652,305.498C452.452,301.898 449.252,300.998 441.852,300.998C432.152,300.998 431.652,300.198 437.052,294.398C441.252,289.898 449.352,275.798 451.052,269.998ZM473.252,300.998C464.652,298.798 458.652,298.398 458.652,299.998C458.652,301.598 462.552,302.698 470.152,303.498C474.052,303.798 478.552,304.398 480.152,304.698C486.352,305.798 481.052,302.998 473.252,300.998ZM471.152,295.398C468.452,294.598 464.852,294.098 463.152,294.098C458.252,294.298 447.452,295.898 446.852,296.498C446.352,296.998 455.052,297.298 461.852,296.998C463.852,296.898 468.452,297.598 472.052,298.498C479.552,300.398 484.052,300.098 479.152,297.998C477.552,297.298 473.952,296.198 471.152,295.398ZM151.252,315.698C147.752,313.298 147.652,312.998 149.752,312.998C153.052,312.998 161.452,318.098 165.952,322.798L169.752,326.798L167.152,329.798C161.352,336.698 151.752,336.798 138.552,330.098C131.652,326.498 128.752,325.598 122.652,325.098L115.152,324.498L121.652,321.298C125.252,319.598 130.552,317.498 133.452,316.498C138.552,314.898 138.852,314.898 143.152,316.898C145.652,318.098 148.852,318.998 150.352,318.998C151.952,319.098 154.752,319.898 156.652,320.998L160.152,322.898L155.052,322.998C152.252,322.998 148.152,322.398 146.052,321.698C135.752,318.098 131.852,319.098 140.952,322.998C147.252,325.698 159.252,326.798 162.652,324.998C164.852,323.798 164.852,323.698 160.052,321.098C157.352,319.598 153.352,317.198 151.252,315.698ZM145.652,316.598C142.452,315.498 141.852,315.098 143.652,315.098C145.052,315.098 147.252,315.698 148.652,316.498C151.852,318.298 151.252,318.298 145.652,316.598ZM371.652,326.898C373.752,325.698 373.852,325.798 373.152,327.998C372.252,330.898 374.252,332.998 378.052,333.098C379.752,333.198 382.252,333.498 383.652,333.898L386.152,334.598L383.552,336.298C381.852,337.398 378.852,338.098 375.152,338.098L369.452,338.198L372.252,341.098C376.252,345.198 374.452,345.898 369.252,342.198C363.552,338.098 360.252,336.898 354.452,336.798C351.852,336.798 349.652,336.698 349.652,336.498C349.652,335.598 357.152,331.998 363.252,330.098C367.052,328.798 370.852,327.398 371.652,326.898Z"/>
    </g>
</svg>
