<svg version="1.0" width="509.651632pt" height="346.977501pt" viewBox="0 0 509.651632 346.977501" preserveAspectRatio="xMidYMid meet">
<g transform="translate(-104.348368,428.998133) scale(0.100000,-0.100000)">
<path d="M2806 4267 c-11 -43 -6 -253 9 -337 20 -112 19 -166 -5 -280 -24 -114 -25 -212 -5 -270 8 -24 14 -45 12 -47 -2 -2 -46 -7 -98 -13 -107 -10 -183 -24 -219 -39 -22 -10 -20 -10 15 -6 244 31 316 32 332 6 15 -24 9 -29 -67 -60 -80 -33 -196 -97 -268 -148 -76 -54 -77 -69 -1 -17 81 54 334 174 368 174 4 0 13 -12 20 -27 11 -23 8 -32 -22 -82 -86 -140 -123 -237 -137 -359 -13 -115 3 -270 46 -445 50 -202 52 -235 21 -343 -34 -117 -51 -241 -44 -323 7 -83 71 -266 126 -358 55 -93 60 -124 29 -165 -92 -121 -89 -196 9 -245 46 -22 68 -26 141 -26 48 -1 122 7 164 16 103 23 175 21 259 -4 53 -16 89 -20 153 -18 74 4 89 8 140 40 l58 35 56 -19 c31 -10 89 -21 127 -24 90 -7 159 12 245 68 82 53 181 93 290 115 143 28 403 7 475 -40 13 -9 36 -39 50 -66 32 -64 77 -114 115 -130 48 -20 132 -8 174 24 53 40 70 80 70 157 0 69 -21 140 -58 195 -12 17 -38 57 -58 88 -43 64 -104 107 -193 135 -93 29 -244 45 -362 37 -96 -5 -104 -5 -99 12 37 121 40 357 7 537 -36 196 -100 364 -191 501 -59 91 -179 224 -261 290 -129 106 -273 231 -319 279 -25 26 -64 63 -87 82 -24 20 -43 42 -43 50 0 43 175 -32 270 -115 28 -24 50 -40 50 -37 0 20 -115 109 -192 150 l-88 46 16 25 c9 13 21 24 27 24 41 0 228 -63 316 -106 58 -28 95 -44 83 -34 -48 39 -152 90 -257 125 -60 20 -113 40 -117 44 -4 3 -5 16 -2 28 7 24 63 38 219 53 83 8 78 9 -53 5 -130 -3 -143 -2 -137 13 15 40 25 122 25 211 0 53 7 137 16 186 8 50 18 160 21 245 7 194 5 199 -90 151 -34 -17 -98 -58 -142 -91 -44 -32 -106 -77 -138 -99 l-58 -40 -162 5 c-225 7 -215 5 -295 80 -81 77 -168 143 -233 179 l-47 25 -6 -23z m169 -179 c45 -47 82 -97 103 -139 l32 -67 48 16 c37 13 89 16 247 17 l200 0 69 68 c69 68 160 137 183 137 20 0 24 -53 14 -156 -15 -147 -37 -202 -68 -172 -14 15 -15 23 -4 59 16 53 7 62 -15 15 -17 -35 -17 -36 9 -84 37 -68 61 -166 54 -224 -12 -96 -26 -124 -84 -164 -51 -35 -67 -58 -25 -35 28 15 55 14 50 -1 -4 -12 -36 -20 -131 -33 -26 -3 -45 -10 -42 -15 3 -4 22 -4 42 0 52 11 89 6 85 -11 -7 -28 -109 -111 -184 -148 -135 -69 -253 -74 -391 -20 -27 11 -52 18 -54 16 -8 -9 62 -45 127 -67 55 -19 80 -21 165 -17 115 6 184 27 271 82 l58 37 53 -58 c89 -98 132 -158 157 -220 24 -58 46 -203 46 -299 0 -25 4 -45 8 -45 9 0 32 171 32 233 0 20 4 37 8 37 23 0 158 -108 235 -187 131 -133 194 -231 262 -402 70 -177 106 -443 85 -631 -6 -58 -14 -135 -17 -171 l-5 -66 53 8 c30 4 113 8 185 8 209 1 318 -34 427 -138 108 -101 148 -233 92 -299 -29 -35 -73 -55 -110 -50 -32 3 -41 17 -50 72 -9 54 -100 146 -170 170 -106 36 -346 27 -548 -21 -37 -9 -70 -13 -74 -10 -3 4 4 18 17 32 48 51 11 32 -71 -35 -131 -110 -268 -169 -286 -124 -3 8 1 33 10 55 8 21 11 39 7 39 -11 0 -54 -57 -63 -83 -7 -19 -45 -37 -64 -30 -20 8 -22 31 -6 78 8 25 13 49 9 52 -12 12 -55 -17 -72 -48 -15 -30 -18 -31 -29 -15 -34 45 -54 310 -36 451 13 93 31 137 31 74 0 -79 40 -181 89 -229 21 -20 77 -60 85 -60 4 0 -6 19 -20 42 -36 56 -73 141 -90 203 -20 74 -17 154 12 300 16 85 25 164 25 228 0 93 -13 167 -30 167 -5 0 -11 -37 -14 -82 -6 -89 -32 -200 -74 -313 -90 -247 -108 -344 -101 -549 4 -110 9 -143 32 -209 15 -43 25 -85 22 -93 -8 -20 -40 -17 -61 6 -20 22 -35 18 -35 -11 0 -16 -7 -19 -45 -19 -31 0 -47 5 -51 15 -4 8 -12 15 -19 15 -7 0 -18 -7 -25 -15 -16 -20 -33 -19 -60 3 l-23 18 21 47 c37 84 46 153 46 367 -1 282 -28 536 -61 577 -12 16 -14 -23 -9 -305 5 -328 -3 -468 -30 -577 -25 -103 -87 -136 -114 -62 -6 18 -16 83 -21 145 -6 63 -21 155 -34 205 l-23 92 -3 -115 c-2 -63 -2 -171 0 -240 2 -97 0 -128 -10 -137 -20 -16 -149 -54 -160 -47 -5 3 -6 16 -3 30 8 32 -9 31 -48 -1 -27 -23 -33 -24 -52 -12 -31 21 -32 68 -3 103 52 63 59 88 59 228 1 76 -8 200 -20 296 -12 91 -26 217 -32 280 -17 172 -36 274 -75 388 -79 236 -81 373 -10 687 26 115 92 271 120 281 21 8 19 19 -10 50 -14 15 -22 31 -17 36 4 4 33 10 64 12 60 4 128 23 128 35 0 4 -19 14 -42 21 -89 26 -187 88 -220 137 -32 49 -24 126 22 222 22 45 40 92 40 104 0 12 -11 40 -24 62 l-24 39 5 -47 c7 -59 -9 -62 -33 -4 -13 30 -19 77 -22 165 -4 113 -3 122 14 122 10 0 50 -33 89 -72z m62 -714 c46 -14 83 -30 83 -35 0 -11 -140 -12 -157 -1 -14 9 -29 62 -17 62 4 0 45 -12 91 -26z m-167 -1508 c0 -2 11 -75 24 -163 14 -87 27 -187 31 -223 3 -36 9 -78 12 -95 8 -48 -12 -18 -45 67 -47 116 -53 151 -54 268 0 111 6 150 23 150 5 0 9 -2 9 -4z" fill="#000000" stroke="none" />
<path d="M3071 3657 c-45 -17 -48 -30 -16 -73 43 -56 66 -67 115 -54 36 10 45 9 60 -5 17 -15 19 -15 25 4 8 25 -16 80 -48 109 -30 29 -89 36 -136 19z m87 -43 c2 -11 -2 -33 -8 -48 -9 -23 -13 -26 -25 -16 -18 15 -19 29 -5 65 11 30 33 29 38 -1z" fill="#000000" stroke="none" />
<path d="M3570 3652 c-46 -21 -100 -67 -109 -94 -14 -39 -14 -78 -1 -78 6 0 10 9 10 21 0 19 4 20 48 13 26 -4 56 -7 66 -6 21 1 116 89 116 107 0 15 -64 45 -93 44 -12 0 -29 -3 -37 -7z m44 -38 c3 -9 6 -29 6 -45 0 -22 -5 -29 -19 -29 -27 0 -31 10 -24 53 6 38 26 49 37 21z" fill="#000000" stroke="none" />
<path d="M3280 3347 c0 -8 11 -24 25 -37 55 -52 14 -106 -75 -98 -56 6 -62 -2 -25 -26 45 -30 82 -31 123 -4 33 22 40 23 67 12 40 -17 87 -17 111 0 17 14 15 15 -29 14 -40 0 -53 4 -78 28 -16 15 -29 31 -29 35 0 4 21 19 46 34 37 22 43 29 33 41 -16 19 -169 20 -169 1z" fill="#000000" stroke="none" />
<path d="M3157 2078 c6 -32 42 -131 117 -323 59 -152 76 -263 76 -488 0 -108 4 -198 9 -201 13 -9 19 24 32 186 12 162 1 360 -26 460 -20 69 -186 398 -202 398 -9 0 -11 -10 -6 -32z" fill="#000000" stroke="none" />
<path d="M4153 1920 c-49 -23 -69 -39 -92 -76 -54 -85 -62 -200 -15 -218 11 -4 14 4 14 33 0 60 36 163 67 193 35 34 104 64 168 73 39 6 46 9 30 16 -43 17 -109 9 -172 -21z" fill="#000000" stroke="none" />
<path d="M1110 2983 c0 -5 6 -31 14 -60 14 -54 12 -70 -10 -52 -17 14 -64 21 -64 10 0 -6 20 -24 45 -41 55 -38 58 -53 8 -44 l-38 7 31 -26 c18 -15 35 -27 39 -27 3 0 33 -23 66 -52 52 -45 66 -52 112 -56 40 -3 56 0 66 12 7 9 19 16 26 16 18 0 56 -47 95 -115 18 -31 34 -55 36 -53 2 2 -10 40 -27 84 -17 43 -43 114 -59 156 -40 110 -96 172 -184 201 -139 48 -156 52 -156 40z m99 -140 c22 -29 51 -57 62 -64 21 -11 22 -10 16 20 -8 39 -1 39 46 0 20 -17 37 -28 37 -24 0 8 -40 65 -69 98 -36 40 -7 34 51 -10 49 -38 78 -77 78 -108 0 -9 -10 -30 -22 -48 -13 -18 -23 -33 -24 -35 -1 -1 -30 7 -65 18 -91 28 -148 88 -163 174 -9 49 1 45 53 -21z" fill="#000000" stroke="none" />
<path d="M1708 2984 c-3 -5 -8 -30 -12 -55 -4 -25 -20 -74 -37 -110 -80 -167 -93 -209 -92 -300 1 -59 6 -96 17 -117 9 -18 13 -32 10 -32 -4 0 -31 23 -61 51 -89 85 -120 94 -310 94 -113 0 -166 -4 -174 -12 -13 -13 -9 -15 83 -48 29 -10 75 -42 120 -82 40 -35 85 -71 99 -79 42 -21 100 -27 163 -15 42 8 63 8 72 0 7 -6 45 -70 85 -142 40 -73 96 -167 126 -210 52 -77 61 -97 44 -97 -15 0 -111 91 -111 105 0 20 -79 100 -119 120 -52 26 -138 30 -221 10 -51 -12 -96 -16 -158 -13 l-86 5 84 -79 c153 -143 200 -165 320 -147 161 23 193 23 239 -1 24 -12 82 -59 128 -103 l85 -82 -184 0 c-165 0 -187 -2 -228 -21 -62 -29 -297 -244 -267 -244 2 0 27 7 57 16 41 12 69 31 125 84 94 89 162 124 224 116 25 -3 52 -12 59 -20 12 -11 9 -17 -18 -36 -30 -21 -124 -60 -145 -60 -20 1 48 51 77 57 17 3 25 10 21 14 -22 22 -151 -38 -223 -102 l-35 -31 74 7 c98 9 162 34 240 95 59 46 69 50 117 50 98 0 193 -27 329 -94 72 -35 170 -81 220 -102 100 -44 91 -56 -23 -30 -176 39 -382 49 -449 21 -47 -20 -77 -47 -166 -155 -38 -47 -91 -106 -116 -132 -25 -27 -40 -48 -35 -48 6 0 47 12 90 26 52 17 117 28 189 34 181 13 199 22 303 148 53 64 92 77 209 69 61 -4 100 -14 150 -36 184 -80 293 -111 293 -81 0 6 -15 10 -33 10 -66 0 -362 198 -407 273 -30 49 -26 78 20 122 44 43 60 95 60 199 0 34 9 96 19 137 39 151 37 206 -3 144 -9 -13 -51 -50 -93 -81 -134 -99 -204 -189 -219 -282 -8 -48 17 -99 81 -172 53 -60 69 -86 55 -95 -12 -8 -26 0 -165 91 -126 82 -195 154 -256 267 -34 62 -34 63 -34 197 0 128 2 138 29 198 27 58 46 79 46 49 0 -6 -9 -44 -20 -82 -31 -107 -25 -133 12 -55 39 84 47 62 13 -38 -30 -84 -44 -185 -27 -196 11 -6 80 81 102 129 9 21 16 110 22 300 12 344 12 329 -3 356 -11 22 -13 20 -29 -36 -24 -87 -42 -124 -89 -182 -55 -70 -106 -165 -126 -237 -17 -59 -17 -165 1 -253 10 -52 -10 -40 -62 38 -58 88 -93 171 -140 330 -45 153 -55 218 -43 264 15 55 29 32 29 -48 0 -68 20 -180 34 -194 3 -4 26 14 51 40 58 61 78 127 78 262 1 78 -5 121 -26 198 -28 102 -51 156 -59 141z m-2 -304 c-9 -45 -16 -106 -16 -135 0 -72 -10 -115 -26 -115 -25 0 -16 137 17 260 7 25 17 63 23 85 18 69 19 -1 2 -95z m23 -162 c0 -28 -2 -30 -9 -13 -12 28 -12 45 0 45 6 0 10 -15 9 -32z m-279 -84 c69 -33 129 -78 130 -98 0 -9 -30 -5 -114 13 -56 13 -162 58 -153 67 3 3 49 -8 102 -26 54 -17 102 -29 107 -28 11 4 -184 98 -202 98 -5 0 -10 5 -10 11 0 18 56 3 140 -37z m443 -257 c-37 -114 -62 -154 -49 -79 17 92 67 215 82 200 2 -3 -13 -57 -33 -121z m-209 -208 c14 -7 28 -19 31 -28 5 -13 4 -14 -6 -3 -15 14 -109 17 -109 2 0 -5 -23 -16 -52 -25 -59 -17 -132 -20 -123 -5 3 6 18 10 33 10 15 0 50 6 77 13 l50 13 -55 7 c-30 4 -71 7 -90 7 -19 0 -42 5 -50 10 -22 14 262 13 294 -1z m759 -51 c-5 -7 -33 -43 -61 -79 -29 -37 -52 -71 -52 -75 0 -4 25 19 55 51 l56 60 -30 -60 c-17 -33 -44 -82 -61 -110 -16 -27 -34 -59 -39 -70 -7 -17 -10 -15 -20 21 -12 45 -11 54 24 129 23 49 106 145 127 145 7 0 7 -4 1 -12z m-38 -195 c-17 -39 -45 -127 -45 -140 0 -7 -4 -13 -10 -13 -21 0 -4 103 24 145 19 29 42 34 31 8z m-177 -398 c8 -7 -90 -96 -153 -139 -27 -19 -63 -38 -80 -41 l-30 -6 25 18 c14 10 41 33 60 51 l35 33 -35 -14 c-19 -8 -64 -28 -100 -45 -77 -36 -110 -46 -110 -35 0 8 16 17 195 114 50 27 85 49 79 49 -11 0 -159 -43 -186 -55 -28 -11 -21 11 9 30 61 40 125 56 207 51 43 -3 81 -8 84 -11z" fill="#000000" stroke="none" />
<path d="M5266 2623 c3 -26 6 -65 8 -85 4 -37 4 -37 -19 -22 -13 9 -33 14 -45 12 -20 -3 -18 -6 16 -38 21 -19 32 -27 25 -17 -17 22 2 23 20 1 8 -9 28 -42 44 -73 29 -55 48 -70 136 -106 13 -5 34 -28 46 -50 29 -51 65 -169 61 -198 -3 -20 -5 -19 -20 9 -29 53 -102 109 -175 134 -54 18 -92 23 -189 25 -66 1 -126 5 -132 9 -7 4 -12 2 -12 -3 0 -6 31 -32 68 -58 38 -27 86 -70 107 -96 21 -27 63 -65 93 -85 52 -35 60 -37 132 -37 119 0 139 -27 141 -192 l1 -108 14 60 c7 33 14 116 15 185 1 120 -1 130 -40 253 -40 125 -43 154 -16 143 15 -5 45 24 45 44 0 7 -7 21 -16 31 -15 16 -14 19 15 34 35 18 42 40 9 30 -20 -7 -21 -5 -15 44 6 48 5 50 -13 38 -11 -6 -20 -23 -20 -36 0 -38 -31 -155 -44 -163 -20 -13 -33 -8 -44 17 -8 17 -20 25 -37 25 -63 0 -105 63 -105 157 0 71 -14 125 -39 147 -18 16 -19 15 -15 -31z m56 -467 c82 -29 201 -114 218 -156 19 -46 5 -47 -43 -3 -35 32 -57 43 -116 56 -79 18 -168 54 -158 63 5 5 109 -13 182 -33 46 -12 -25 28 -104 58 -45 17 -81 33 -81 35 0 10 40 2 102 -20z" fill="#000000" stroke="none" />
<path d="M5413 2590 c5 -19 4 -19 -26 -4 -28 15 -32 15 -43 0 -13 -18 0 -76 30 -135 24 -45 36 -38 36 19 0 28 4 50 9 50 8 0 52 -97 64 -140 2 -8 10 12 17 45 6 33 16 69 21 80 5 11 13 35 18 53 12 42 -6 44 -22 2 -6 -16 -15 -30 -18 -30 -4 0 -22 18 -39 40 -34 43 -56 52 -47 20z" fill="#000000" stroke="none" />
<path d="M5782 2371 c-91 -135 -123 -217 -127 -327 -1 -45 -5 -86 -9 -93 -18 -28 16 -7 49 32 62 70 101 167 130 317 14 74 28 145 31 158 2 12 3 22 2 22 -2 0 -36 -49 -76 -109z m-67 -267 c-26 -70 -45 -101 -45 -72 0 21 27 104 46 139 29 56 28 13 -1 -67z" fill="#000000" stroke="none" />
<path d="M6082 1920 c-13 -10 -47 -22 -80 -26 -112 -13 -205 -83 -277 -209 -22 -38 -64 -94 -92 -124 -29 -30 -52 -56 -50 -57 1 -1 27 13 57 33 76 48 129 70 201 83 159 29 243 117 275 286 7 38 -1 42 -34 14z m-128 -131 c-10 -4 -41 -15 -68 -24 -27 -10 -63 -31 -80 -48 -17 -16 -24 -25 -16 -20 26 18 149 55 167 51 22 -5 -49 -39 -131 -62 -30 -9 -62 -19 -70 -22 -14 -5 -14 -3 0 25 26 52 85 93 159 111 37 8 68 0 39 -11z" fill="#000000" stroke="none" />
<path d="M5048 1883 c-16 -3 -28 -7 -28 -11 0 -4 34 -24 75 -45 55 -29 90 -56 130 -102 39 -43 76 -74 124 -99 75 -39 84 -47 98 -90 13 -40 29 -43 47 -8 26 50 30 108 12 155 -29 78 -135 159 -241 185 -47 12 -178 20 -217 15z m274 -100 c47 -18 91 -44 85 -49 -3 -3 -147 54 -156 62 -11 10 33 2 71 -13z m15 -74 c87 -34 123 -54 123 -70 0 -6 -9 -8 -22 -4 -42 12 -178 78 -189 92 -17 20 1 17 88 -18z" fill="#000000" stroke="none" />
<path d="M1456 1732 c-3 -5 8 -6 25 -4 16 2 29 6 29 8 0 8 -49 4 -54 -4z" fill="#000000" stroke="none" />
<path d="M1605 1730 c-16 -4 -47 -8 -68 -9 -42 -1 -97 -33 -97 -57 0 -8 3 -14 7 -14 6 0 119 46 198 80 25 11 2 11 -40 0z" fill="#000000" stroke="none" />
<path d="M5554 1590 c-17 -58 -98 -199 -140 -244 -54 -58 -49 -66 48 -66 74 0 106 -9 158 -45 40 -28 118 -48 275 -70 61 -9 140 -27 178 -40 37 -13 67 -21 67 -19 0 3 -7 19 -16 37 -41 80 -149 194 -217 228 -87 45 -247 36 -379 -22 -93 -41 -109 -39 -65 10 50 55 85 119 97 179 12 54 7 96 -6 52z m201 -254 c28 -8 64 -19 80 -26 49 -21 4 -24 -71 -5 -36 9 -82 16 -102 15 -68 -3 -155 0 -150 5 6 6 114 22 163 24 17 0 53 -5 80 -13z m21 -56 c78 -20 131 -48 69 -37 -16 3 -61 9 -100 12 -76 8 -115 19 -115 35 0 16 60 12 146 -10z" fill="#000000" stroke="none" />
<path d="M2556 1133 c21 -15 61 -39 88 -54 48 -26 48 -27 26 -39 -34 -18 -154 -7 -217 20 -91 39 -52 49 51 13 21 -7 62 -13 90 -13 l51 1 -35 19 c-19 11 -47 19 -63 20 -15 0 -47 9 -72 21 -43 20 -46 20 -97 4 -29 -10 -82 -31 -118 -48 l-65 -32 75 -6 c61 -5 90 -14 159 -50 132 -67 228 -66 286 3 l26 30 -38 40 c-45 47 -129 98 -162 98 -21 0 -20 -3 15 -27z" fill="#000000" stroke="none" />
<path d="M2500 1124 c56 -17 62 -17 30 1 -14 8 -36 14 -50 14 -18 0 -12 -4 20 -15z" fill="#000000" stroke="none" />
<path d="M4760 1021 c-8 -5 -46 -19 -84 -32 -61 -19 -136 -55 -136 -64 0 -2 22 -3 48 -3 58 -1 91 -13 148 -54 52 -37 70 -30 30 11 l-28 29 57 1 c37 0 67 7 84 18 l26 17 -25 7 c-14 4 -39 7 -56 8 -38 1 -58 22 -49 51 7 22 6 23 -15 11z" fill="#000000" stroke="none" />
</g>
</svg>